<svg xmlns="http://www.w3.org/2000/svg" width="12.606" height="14.407" viewBox="0 0 12.606 14.407">
  <g id="trash-can" transform="translate(0 -0.001)">
    <g id="Grupo_15" data-name="Grupo 15" transform="translate(0 0.001)">
      <path id="Trazado_6" data-name="Trazado 6" d="M32,96v10.355a1.351,1.351,0,0,0,1.351,1.351h8.1a1.351,1.351,0,0,0,1.351-1.351V96Zm3.152,9a.45.45,0,1,1-.9,0V98.7a.45.45,0,1,1,.9,0Zm2.7,0a.45.45,0,1,1-.9,0V98.7a.45.45,0,1,1,.9,0Zm2.7,0a.45.45,0,1,1-.9,0V98.7a.45.45,0,1,1,.9,0Z" transform="translate(-31.1 -93.299)" fill="#3f4c58" opacity="0.4"/>
      <path id="Trazado_7" data-name="Trazado 7" d="M12.156.9H9L8.679.25A.45.45,0,0,0,8.276,0H4.33a.45.45,0,0,0-.4.249L3.6.9H.45a.45.45,0,0,0-.45.45v.9a.45.45,0,0,0,.45.45H12.156a.45.45,0,0,0,.45-.45v-.9A.45.45,0,0,0,12.156.9Z" transform="translate(0 -0.001)" fill="#3f4c58"/>
    </g>
  </g>
</svg>
